<?xml version="1.0" encoding="UTF-8"?>
<svg width="21px" height="36px" viewBox="0 0 21 36" version="1.1" xmlns="http://www.w3.org/2000/svg" xmlns:xlink="http://www.w3.org/1999/xlink">
    <!-- Generator: Sketch 47 (45396) - http://www.bohemiancoding.com/sketch -->
    <title>Group 2 Copy</title>
    <desc>Created with Sketch.</desc>
    <defs></defs>
    <g id="Flujo-sitio" stroke="none" stroke-width="1" fill="none" fill-rule="evenodd">
        <g id="Group-2-Copy" transform="translate(10.153846, 18.000000) rotate(-180.000000) translate(-10.153846, -18.000000) translate(0.153846, 0.000000)" fill="#5BABBF">
            <polygon id="" points="7.76551724 17 7.76551724 26.5313531 1 26.5313531 10 36 19 26.5313531 12.2344828 26.5313531 12.2344828 17"></polygon>
            <path d="M10,20 C15.5228475,20 20,15.5228475 20,10 C20,4.4771525 15.5228475,0 10,0 C4.4771525,0 0,4.4771525 0,10 C0,15.5228475 4.4771525,20 10,20 Z M9.05161078,4.15996978 C8.94928834,4.15996978 8.6934861,4.21113023 8.28419637,4.31345266 C7.56793935,4.51809753 7.00517441,4.72273932 6.59588468,4.92738419 C5.98195009,5.33667391 5.62382695,5.9505993 5.52150452,6.76917875 C5.31685966,7.99704794 5.62382235,8.96909646 6.4424018,9.68535349 C6.95401396,10.0946432 7.82374159,10.5039268 9.05161078,10.9132165 L9.97250806,11.3736652 C10.6887651,11.6806325 11.021308,12.0387556 10.9701468,12.4480453 C10.9189856,12.8573351 10.4329613,13.0363966 9.51205942,12.9852354 C8.59115753,12.9340742 7.26098587,12.5503708 5.52150452,11.8341138 L5.52150452,14.5968057 L7.05633333,15.0572543 L9.05161078,15.3642201 L9.05161078,16.8990489 L10.7399225,16.8990489 L10.7399225,15.3642201 L11.8143026,15.0572543 C13.3491391,14.5456422 14.1677063,13.5991739 14.2700287,12.217821 C14.3723512,10.8364682 13.7584258,9.83883944 12.4282342,9.22490485 L10.8934053,8.61097332 C9.4608913,8.09936116 8.74464502,7.56217645 8.74464502,6.99940308 C8.74464502,6.4366297 9.4608913,6.30872858 10.8934053,6.61569587 L13.0421657,7.2296274 L13.963063,4.92738419 L10.7399225,4.15996978 L10.7399225,3.08558962 L9.05161078,3.08558962 L9.05161078,4.15996978 Z" id="Oval" transform="translate(10.000000, 10.000000) rotate(-180.000000) translate(-10.000000, -10.000000) "></path>
        </g>
    </g>
</svg>