<?xml version="1.0" encoding="UTF-8"?>
<svg width="26px" height="24px" viewBox="0 0 26 24" version="1.1" xmlns="http://www.w3.org/2000/svg" xmlns:xlink="http://www.w3.org/1999/xlink">
    <!-- Generator: Sketch 47 (45396) - http://www.bohemiancoding.com/sketch -->
    <title>Shape</title>
    <desc>Created with Sketch.</desc>
    <defs></defs>
    <g id="Flujo-sitio" stroke="none" stroke-width="1" fill="none" fill-rule="evenodd">
        <g id="Artboard-Copy-6" transform="translate(-17.000000, -18.000000)" fill="#5BABBF">
            <path d="M27.5,35 L27.5,33.75 L18.7625,33.75 L18.75,38.75 C18.75,40.1375 19.8625,41.25 21.25,41.25 L38.75,41.25 C40.1375,41.25 41.25,40.1375 41.25,38.75 L41.25,33.75 L32.5,33.75 L32.5,35 L27.5,35 L27.5,35 Z M40,23.75 L34.9875,23.75 L34.9875,21.25 L32.4875,18.75 L27.4875,18.75 L24.9875,21.25 L24.9875,23.75 L20,23.75 C18.625,23.75 17.5,24.875 17.5,26.25 L17.5,30 C17.5,31.3875 18.6125,32.5 20,32.5 L27.5,32.5 L27.5,30 L32.5,30 L32.5,32.5 L40,32.5 C41.375,32.5 42.5,31.375 42.5,30 L42.5,26.25 C42.5,24.875 41.375,23.75 40,23.75 L40,23.75 Z M32.5,23.75 L27.5,23.75 L27.5,21.25 L32.5,21.25 L32.5,23.75 L32.5,23.75 Z" id="Shape"></path>
        </g>
    </g>
</svg>