<?xml version="1.0" encoding="UTF-8"?>
<svg width="20px" height="19px" viewBox="0 0 20 19" version="1.1" xmlns="http://www.w3.org/2000/svg" xmlns:xlink="http://www.w3.org/1999/xlink">
    <!-- Generator: Sketch 47 (45396) - http://www.bohemiancoding.com/sketch -->
    <title>Fill 7</title>
    <desc>Created with Sketch.</desc>
    <defs></defs>
    <g id="Flujo-sitio" stroke="none" stroke-width="1" fill="none" fill-rule="evenodd">
        <g id="Artboard-Copy-9" transform="translate(-20.000000, -20.000000)" fill="#5BABBF">
            <path d="M38.9474517,35.7892794 L38.9474517,36.8418277 C38.9474517,37.9998418 37.9998418,38.9474517 36.8418277,38.9474517 L22.1050966,38.9474517 C20.936536,38.9474517 20,37.9998418 20,36.8418277 L20,22.1050966 C20,20.9470826 20.936536,20 22.1050966,20 L36.8418277,20 C37.9998418,20 38.9474517,20.9470826 38.9474517,22.1050966 L38.9474517,23.1576449 L29.4734622,23.1576449 C28.3049015,23.1576449 27.3683655,24.1052548 27.3683655,25.2632689 L27.3683655,33.6841828 C27.3683655,34.8421969 28.3049015,35.7892794 29.4734622,35.7892794 L38.9474517,35.7892794 L38.9474517,35.7892794 Z M29.4734622,33.6841828 L40,33.6841828 L40,25.2632689 L29.4734622,25.2632689 L29.4734622,33.6841828 Z M33.6841828,31.052812 C32.8103989,31.052812 32.1053603,30.347246 32.1053603,29.4734622 C32.1053603,28.5996783 32.8103989,27.8946397 33.6841828,27.8946397 C34.5579666,27.8946397 35.2630052,28.5996783 35.2630052,29.4734622 C35.2630052,30.347246 34.5579666,31.052812 33.6841828,31.052812 L33.6841828,31.052812 Z" id="Fill-7"></path>
        </g>
    </g>
</svg>