<?xml version="1.0" encoding="UTF-8"?>
<svg width="19px" height="36px" viewBox="0 0 19 36" version="1.1" xmlns="http://www.w3.org/2000/svg" xmlns:xlink="http://www.w3.org/1999/xlink">
    <!-- Generator: Sketch 47 (45396) - http://www.bohemiancoding.com/sketch -->
    <title>Group 2</title>
    <desc>Created with Sketch.</desc>
    <defs></defs>
    <g id="Flujo-sitio" stroke="none" stroke-width="1" fill="none" fill-rule="evenodd">
        <g id="Group-2">
            <polygon id="" fill="#69B4C5" points="6.76551724 17 6.76551724 26.5313531 0 26.5313531 9 36 18 26.5313531 11.2344828 26.5313531 11.2344828 17"></polygon>
            <path d="M9.5,19 C14.7467051,19 19,14.7467051 19,9.5 C19,4.25329488 14.7467051,0 9.5,0 C4.25329488,0 0,4.25329488 0,9.5 C0,14.7467051 4.25329488,19 9.5,19 Z M8.59903024,3.95197129 C8.50182393,3.95197129 8.2588118,4.00057372 7.86998655,4.09778003 C7.18954238,4.29219265 6.65491569,4.48660236 6.26609045,4.68101498 C5.68285259,5.06984022 5.3426356,5.65306933 5.24542929,6.43071982 C5.05101667,7.59719554 5.34263123,8.52064164 6.12028171,9.20108581 C6.60631327,9.58991106 7.43255451,9.97873047 8.59903024,10.3675557 L9.47388266,10.8049819 C10.1543268,11.0966009 10.4702426,11.4368178 10.4216394,11.8256431 C10.3730363,12.2144683 9.91131324,12.3845768 9.03645645,12.3359737 C8.16159965,12.2873705 6.89793657,11.9228523 5.24542929,11.2424081 L5.24542929,13.8669654 L6.70351666,14.3043916 L8.59903024,14.5960091 L8.59903024,16.0540964 L10.2029263,16.0540964 L10.2029263,14.5960091 L11.2235875,14.3043916 C12.6816822,13.81836 13.459321,12.9192152 13.5565273,11.60693 C13.6537336,10.2946448 13.0705045,9.34689747 11.8068224,8.7636596 L10.3487351,8.18042466 C8.98784673,7.69439311 8.30741276,7.18406763 8.30741276,6.64943292 C8.30741276,6.11479821 8.98784673,5.99329215 10.3487351,6.28491108 L12.3900574,6.86814603 L13.2649098,4.68101498 L10.2029263,3.95197129 L10.2029263,2.93131014 L8.59903024,2.93131014 L8.59903024,3.95197129 Z" id="Oval" fill="#5BABBF"></path>
        </g>
    </g>
</svg>