<?xml version="1.0" encoding="UTF-8"?>
<svg width="47px" height="25px" viewBox="0 0 47 25" version="1.1" xmlns="http://www.w3.org/2000/svg" xmlns:xlink="http://www.w3.org/1999/xlink">
    <!-- Generator: Sketch 47 (45396) - http://www.bohemiancoding.com/sketch -->
    <title>Group</title>
    <desc>Created with Sketch.</desc>
    <defs></defs>
    <g id="Flujo-sitio" stroke="none" stroke-width="1" fill="none" fill-rule="evenodd">
        <g id="Artboard-Copy-3" transform="translate(-7.000000, -18.000000)" fill="#69B4C5">
            <g id="Group" transform="translate(7.000000, 18.000000)">
                <path d="M37.1257043,6.61447601 L32,7.26459822 L39.4539281,7.41713735 C37.5310255,9.9912348 36.2149041,11.9122933 35.5055638,13.1803127 C34.7962236,14.4483322 34.5522219,15.3161559 34.773559,15.7837838 L39.263656,13.1803127 L43.7517606,15.7837838 L42.7216385,10.6722724 L46.5263158,7.26559229 L41.4006115,6.61447601 L39.263656,2 L37.1257043,6.61447601 Z" id="Fill-1"></path>
                <path d="M5.12570432,6.61447601 L0,7.26459822 L7.45392809,7.41713735 C5.53102552,9.9912348 4.2149041,11.9122933 3.50556384,13.1803127 C2.79622357,14.4483322 2.55222195,15.3161559 2.77355896,15.7837838 L7.26365602,13.1803127 L11.7517606,15.7837838 L10.7216385,10.6722724 L14.5263158,7.26559229 L9.40061147,6.61447601 L7.26365602,2 L5.12570432,6.61447601 Z" id="Fill-1-Copy" transform="translate(7.263158, 8.891892) scale(-1, 1) translate(-7.263158, -8.891892) "></path>
                <polygon id="Fill-4" points="27.3971074 8.576182 23.5969819 0.432432432 19.7968565 8.576182 10.6842105 9.72416102 17.446314 15.7371993 15.6159333 24.7567568 23.5969819 20.1628966 31.5770492 24.7567568 29.745687 15.7371993 36.5087719 9.72416102"></polygon>
            </g>
        </g>
    </g>
</svg>