<?xml version="1.0" encoding="UTF-8"?>
<svg width="24px" height="24px" viewBox="0 0 24 24" version="1.1" xmlns="http://www.w3.org/2000/svg" xmlns:xlink="http://www.w3.org/1999/xlink">
    <!-- Generator: Sketch 47 (45396) - http://www.bohemiancoding.com/sketch -->
    <title>Shape</title>
    <desc>Created with Sketch.</desc>
    <defs></defs>
    <g id="Flujo-sitio" stroke="none" stroke-width="1" fill="none" fill-rule="evenodd">
        <g id="Artboard-Copy-4" transform="translate(-14.000000, -18.000000)" fill="#5BABBF">
            <path d="M24.8,26.5824639 L24.8,18 C18.8,18.5993341 14,23.7416204 14,29.9866815 C14,36.2317425 18.8,41.3740289 24.8,41.9733629 L24.8,33.390899 C23.6,32.8994451 22.4,31.5689234 22.4,29.9866815 C22.4,28.4044395 23.6,27.0739179 24.8,26.5824639 L24.8,26.5824639 Z M29.432,28.7880133 L38,28.7880133 C37.424,23.0943396 33.2,18.563374 27.2,18 L27.2,26.5824639 C28.4,26.9420644 29.024,27.7571587 29.432,28.7880133 L29.432,28.7880133 Z M27.2,33.390899 L27.2,41.9733629 C33.2,41.4099889 37.424,36.8790233 38,31.1853496 L29.432,31.1853496 C29.024,32.2162042 28.4,33.0312986 27.2,33.390899 L27.2,33.390899 Z" id="Shape"></path>
        </g>
    </g>
</svg>