<?xml version="1.0" encoding="UTF-8"?>
<svg width="23px" height="20px" viewBox="0 0 23 20" version="1.1" xmlns="http://www.w3.org/2000/svg" xmlns:xlink="http://www.w3.org/1999/xlink">
    <!-- Generator: Sketch 47 (45396) - http://www.bohemiancoding.com/sketch -->
    <title>Group</title>
    <desc>Created with Sketch.</desc>
    <defs></defs>
    <g id="Flujo-sitio" stroke="none" stroke-width="1" fill="none" fill-rule="evenodd">
        <g id="Group" fill="#5BABBF">
            <path d="M22.7586207,20 L19.5427286,20 L19.5427286,7.77429467 C19.5427286,7.69069969 19.5633431,7.62800439 19.6045727,7.5862069 L20.2230135,6.89655172 L22.6967766,9.40438871 C22.7380062,9.44618621 22.7586207,9.48798307 22.7586207,9.52978056 L22.7586207,20 Z M17.9347826,9.27899687 L17.9347826,20 L14.6570465,20 L14.6570465,12.6645768 C14.6570465,12.5809818 14.677661,12.539185 14.7188906,12.539185 L17.9347826,9.27899687 Z M8.10157421,20 L4.82383808,20 L4.82383808,13.5423197 C4.82383808,13.5005223 4.84445257,13.4587254 4.88568216,13.4169279 L7.79235382,10.5329154 L8.03973013,10.2194357 L8.10157421,10.2194357 L8.10157421,20 Z M13.1109445,20 L9.89505247,20 L9.89505247,10.6583072 L13.1109445,13.8557994 L13.1109445,20 Z M3.21589205,15.0470219 L3.21589205,20 L5.1159077e-13,20 L5.1159077e-13,18.369906 C5.1159077e-13,18.3281085 0.0206144865,18.2863116 0.061844078,18.2445141 L3.21589205,15.0470219 Z M13.2604429,7.89210234 C13.5071501,7.6065985 13.8977639,7.21913482 14.432296,6.72969967 L18.6262966,2.5083426 L16.097561,0 L22.7586207,0 L22.7586207,6.5461624 L20.2298851,4.09899889 L13.2604429,10.9510567 L8.81973647,6.60734149 L0,15.1724138 L0,11.807564 C0,11.7667777 0.0205586207,11.725992 0.0616764788,11.6852058 L8.81973647,3.48720801 L13.2604429,7.89210234 Z" id="Combined-Shape"></path>
        </g>
    </g>
</svg>