<?xml version="1.0" encoding="UTF-8"?>
<svg width="26px" height="26px" viewBox="0 0 26 26" version="1.1" xmlns="http://www.w3.org/2000/svg" xmlns:xlink="http://www.w3.org/1999/xlink">
    <!-- Generator: Sketch 47 (45396) - http://www.bohemiancoding.com/sketch -->
    <title>Group 15</title>
    <desc>Created with Sketch.</desc>
    <defs></defs>
    <g id="Flujo-sitio" stroke="none" stroke-width="1" fill="none" fill-rule="evenodd">
        <g id="Group-15">
            <path d="M16.679509,20.0888339 C18.3434747,20.0967202 19.7194745,18.7854644 19.8035821,17.1117557 L19.8035821,17.0687654 L22.8342798,13.640289 C23.4735669,12.8938539 24.5823872,12.7850203 25.3527469,13.3930948 C25.7236271,13.7020461 25.9548913,14.1487609 25.9940718,14.6318912 C26.0332522,15.1150215 25.8770274,15.5936103 25.5608406,15.9590783 L19.5101166,22.9450019 C18.7033256,23.8762581 17.5358309,24.4102767 16.3086754,24.4093589 L7.21391431,24.4093589 L5.63453662,26 L0,20.4676859 L4.03648386,16.4373454 C5.70906152,14.7631124 8.18444013,14.1985539 10.4100198,14.9837359 L11.2957519,15.2981024 L16.7515414,15.2981024 C17.2166089,15.2978765 17.6619009,15.4875398 17.9856872,15.8237623 C18.3094734,16.1599848 18.4840913,16.6140416 18.4696482,17.0821998 C18.4085992,18.0285777 17.6210505,18.7602755 16.679509,18.745387 L13.4060353,18.745387 C13.0376796,18.745387 12.7390683,19.0461279 12.7390683,19.4171105 C12.7390683,19.7880931 13.0376796,20.0888339 13.4060353,20.0888339 L16.679509,20.0888339 Z" id="Shape" fill="#5BABBF" fill-rule="nonzero"></path>
            <path d="M13.8369519,7.3325111 C14.298247,7.5767622 14.7796202,7.78632732 15.2765118,7.95922145 C15.4889517,8.03756024 15.7013916,8.11851033 15.9110362,8.204683 C16.1613114,8.30455972 16.3955496,8.43638014 16.6070564,8.59637697 C16.8581781,8.75695113 16.9909131,9.0360848 16.9501129,9.31780416 C16.9093127,9.59952353 16.7019515,9.83567251 16.4141833,9.92813647 C16.0349431,10.0771319 15.6196607,10.1276558 15.2122207,10.0743689 C14.5397671,10.0055491 13.8862667,9.8232867 13.2834901,9.5364425 C13.1575694,9.4637767 13.0146428,9.42076358 12.8669961,9.41110043 C12.5315647,9.41110043 12.42814,9.7270669 12.3694395,9.89680095 C12.2604243,10.2232126 12.1625901,10.5522355 12.0675512,10.8812585 C11.9110165,11.4191848 12.0088507,11.6202544 12.5483362,11.865716 C13.1411734,12.1171912 13.770275,12.2861103 14.4155711,12.3670842 C14.5180935,12.377645 14.6192269,12.3977652 14.7174594,12.427144 C14.7386529,12.5277089 14.7470968,12.6302554 14.7426168,12.7326653 L14.7426168,13.3776547 C14.731222,13.5441387 14.7964639,13.7072464 14.9219334,13.8259545 C15.0474029,13.9446626 15.2211601,14.0076747 15.3995033,13.9991425 L15.8746978,13.9991425 L16.4337502,13.9991425 C16.6080558,14.0081465 16.7779387,13.9459018 16.8992145,13.8285972 C17.0204904,13.7112926 17.0811729,13.5505221 17.0654793,13.3880999 L17.0654793,13.095635 L17.0654793,12.4976489 C17.0654793,12.2991906 17.115794,12.2365196 17.3450055,12.1764599 C18.0857734,11.9947301 18.746138,11.5989983 19.2318072,11.0457699 C19.8663138,10.3307973 20.1266028,9.38879858 19.9418037,8.47625749 C19.7339922,7.50355684 19.0730976,6.66791564 18.1388599,6.19659859 C17.6132509,5.93755151 17.0719142,5.70736677 16.517608,5.5072172 L16.3051681,5.42626712 C15.9805155,5.30460592 15.675674,5.14112199 15.3995033,4.9405666 C15.2051378,4.80914344 15.09899,4.59197923 15.1199771,4.3686934 C15.165394,4.140548 15.3365612,3.95184381 15.5700143,3.87254771 C15.7373566,3.81050002 15.9154925,3.77774873 16.0955235,3.77592986 C16.8348049,3.73407653 17.5731676,3.87077105 18.2394893,4.17284642 C18.9271237,4.4835903 19.0780678,4.01616883 19.1339731,3.81771055 C19.2262167,3.55658124 19.3072793,3.29545193 19.3883419,3.02126615 L19.4833808,2.70791097 C19.5419356,2.55913054 19.5333443,2.3945197 19.4595737,2.25176642 C19.3858032,2.10901314 19.2531712,2.00034291 19.0920441,1.95063597 C18.6184506,1.75542738 18.1193977,1.61934031 17.6077601,1.54588553 C17.1465419,1.47799191 17.1465419,1.47799191 17.1465419,1.04451725 C17.1465419,0.133175949 17.0710698,0 16.1178856,0 L15.6035574,0 C15.044505,0.0156677588 14.8935609,0.169734053 14.8795846,0.681547506 L14.8795846,1.03668337 L14.8795846,1.22730777 C14.8795846,1.61116786 14.8795846,1.61116786 14.4714764,1.74956639 C12.9843971,2.25354597 12.1849522,3.20405667 12.0955038,4.57237426 C12.0144412,5.72395453 12.5874699,6.63268454 13.8369519,7.3325111 Z" id="Path" fill="#69B4C5"></path>
        </g>
    </g>
</svg>