<?xml version="1.0" encoding="UTF-8"?>
<svg width="34px" height="25px" viewBox="0 0 34 25" version="1.1" xmlns="http://www.w3.org/2000/svg" xmlns:xlink="http://www.w3.org/1999/xlink">
    <!-- Generator: Sketch 47 (45396) - http://www.bohemiancoding.com/sketch -->
    <title>Page 1</title>
    <desc>Created with Sketch.</desc>
    <defs>
        <polygon id="path-1" points="0.310557447 0.147281324 3.23021702 0.147281324 3.23021702 4.7543026 0.310557447 4.7543026 0.310557447 0.147281324"></polygon>
    </defs>
    <g id="Flujo-sitio" stroke="none" stroke-width="1" fill="none" fill-rule="evenodd">
        <g id="Page-1">
            <path d="M21.1299149,9.36387707 C21.7607234,9.70501182 22.3582553,10.1291253 22.9051489,10.6383452 C23.4477021,11.1426005 23.9085106,11.7000473 24.2868511,12.2950827 L24.2065532,9.28515366 L21.1299149,9.36387707 Z" id="Fill-1" fill="#69B4C5"></path>
            <g id="Group-5" transform="translate(9.247518, 9.226525)" fill="#69B4C5">
                <path d="M10.1635887,0.483664303 C9.39460993,0.227635934 8.57065248,0.086501182 7.71197163,0.086501182 C6.86631206,0.086501182 6.05392908,0.223380615 5.29435461,0.472316785 C2.2661844,1.46380615 0.0822269504,4.26451537 0.0822269504,7.56664303 C0.0822269504,11.6985579 3.49814184,15.0474941 7.71197163,15.0474941 C11.9265248,15.0474941 15.3424397,11.6985579 15.3424397,7.56664303 C15.3424397,4.27728132 13.1743972,1.48437352 10.1635887,0.483664303" id="Fill-3"></path>
            </g>
            <path d="M22.5512596,1.08316785 C21.6397702,0.771111111 20.6935574,0.532813239 19.7176851,0.37607565 L19.1208766,4.9172104 C19.6952596,5.0172104 20.2551745,5.15479905 20.7984511,5.32997636 L22.5512596,1.08316785 Z" id="Fill-6" fill="#69B4C5"></path>
            <path d="M11.9057872,5.79352246 L10.1558723,1.55026005 C9.25378723,1.93749409 8.39221277,2.39919622 7.58055319,2.92898345 L10.3743404,6.60486998 C10.8633617,6.30061466 11.3748085,6.02898345 11.9057872,5.79352246" id="Fill-8" fill="#69B4C5"></path>
            <path d="M14.8022255,4.91671395 L14.2061404,0.375579196 C13.2302681,0.530898345 12.2840553,0.769905437 11.3718426,1.08196217 L13.1239277,5.32947991 C13.6679277,5.1543026 14.2278426,5.01671395 14.8022255,4.91671395" id="Fill-10" fill="#69B4C5"></path>
            <path d="M23.5480383,6.60664303 L26.3425489,2.9307565 C25.5308894,2.40096927 24.6693149,1.93997636 23.7672298,1.55132388 L22.0165915,5.79458629 C22.5475702,6.0307565 23.059017,6.30167849 23.5480383,6.60664303" id="Fill-12" fill="#69B4C5"></path>
            <g id="Group-16" transform="translate(15.191489, 0.006667)">
                <mask id="mask-2" fill="white">
                    <use xlink:href="#path-1"></use>
                </mask>
                <g id="Clip-15"></g>
                <path d="M1.76821702,4.72096927 C2.05902553,4.72096927 2.34694043,4.73515366 2.63268511,4.7543026 L3.23021702,0.213167849 C2.74770638,0.172033097 2.26157872,0.147210402 1.76821702,0.147210402 C1.27630213,0.147210402 0.790897872,0.172033097 0.310557447,0.212458629 L0.907365957,4.75359338 C1.19166383,4.73444444 1.47885532,4.72096927 1.76821702,4.72096927" id="Fill-14" fill="#69B4C5" mask="url(#mask-2)"></path>
            </g>
            <path d="M4.36162128,5.65153664 L8.01698298,8.51465721 C8.41847234,8.09621749 8.85106809,7.70685579 9.31042979,7.34869976 L6.52170638,3.68061466 C5.74549362,4.27635934 5.02064255,4.93380615 4.36162128,5.65153664" id="Fill-17" fill="#69B4C5"></path>
            <path d="M32.5609319,10.2524586 L28.2957404,12.108487 C28.5279532,12.6496217 28.7211021,13.2106147 28.8715702,13.7886288 L33.486166,13.0517494 C33.2597404,12.0843735 32.9508468,11.1474941 32.5609319,10.2524586" id="Fill-19" fill="#37435E"></path>
            <path d="M33.7322681,14.3104019 L29.1256298,15.0458629 C29.2088213,15.6125296 29.2543957,16.191253 29.2543957,16.7806147 L33.9196298,16.7806147 C33.9196298,15.9416076 33.8545234,15.1167849 33.7322681,14.3104019" id="Fill-21" fill="#37435E"></path>
            <path d="M30.3957106,6.63990544 L26.7512,9.49309693 C27.1100085,9.95621749 27.434817,10.4441608 27.7241787,10.9562175 L31.9987745,9.09593381 C31.5365191,8.22926714 30.9997532,7.40799054 30.3957106,6.63990544" id="Fill-23" fill="#37435E"></path>
            <path d="M27.4003106,3.68245863 L24.6115872,7.34983452 C25.0702255,7.70869976 25.5028213,8.09877069 25.905034,8.51650118 L29.5603957,5.65408983 C28.9013745,4.93706856 28.1765234,4.27891253 27.4003106,3.68245863" id="Fill-25" fill="#69B4C5"></path>
            <path d="M0,16.7808983 L4.66523404,16.7808983 C4.66523404,16.1908274 4.71080851,15.6113948 4.7947234,15.0440189 L0.188085106,14.3071395 C0.065106383,15.1142317 0,15.9397636 0,16.7808983" id="Fill-27" fill="#69B4C5"></path>
            <path d="M1.92295319,9.09309693 L6.19682553,10.9540898 C6.48618723,10.4420331 6.81171915,9.95408983 7.17052766,9.49167849 L3.52601702,6.63706856 C2.92197447,7.40515366 2.38520851,8.22643026 1.92295319,9.09309693" id="Fill-29" fill="#69B4C5"></path>
            <path d="M0.434476596,13.0491962 L5.04834894,13.7867849 C5.19881702,13.2087707 5.39268936,12.6477778 5.62490213,12.1059338 L1.35971064,10.2499054 C0.969795745,11.1442317 0.660178723,12.0811111 0.434476596,13.0491962" id="Fill-31" fill="#69B4C5"></path>
        </g>
    </g>
</svg>