<?xml version="1.0" encoding="UTF-8"?>
<svg width="19px" height="20px" viewBox="0 0 19 20" version="1.1" xmlns="http://www.w3.org/2000/svg" xmlns:xlink="http://www.w3.org/1999/xlink">
    <!-- Generator: Sketch 47 (45396) - http://www.bohemiancoding.com/sketch -->
    <title>Group 2</title>
    <desc>Created with Sketch.</desc>
    <defs></defs>
    <g id="Flujo-sitio" stroke="none" stroke-width="1" fill="none" fill-rule="evenodd">
        <g id="Group-2" fill="#5BABBF">
            <path d="M9.5,20 C14.7467051,20 19,15.5228475 19,10 C19,4.4771525 14.7467051,0 9.5,0 C4.25329488,0 0,4.4771525 0,10 C0,15.5228475 4.25329488,20 9.5,20 Z M8.59903024,4.15996978 C8.50182393,4.15996978 8.2588118,4.21113023 7.86998655,4.31345266 C7.18954238,4.51809753 6.65491569,4.72273932 6.26609045,4.92738419 C5.68285259,5.33667391 5.3426356,5.9505993 5.24542929,6.76917875 C5.05101667,7.99704794 5.34263123,8.96909646 6.12028171,9.68535349 C6.60631327,10.0946432 7.43255451,10.5039268 8.59903024,10.9132165 L9.47388266,11.3736652 C10.1543268,11.6806325 10.4702426,12.0387556 10.4216394,12.4480453 C10.3730363,12.8573351 9.91131324,13.0363966 9.03645645,12.9852354 C8.16159965,12.9340742 6.89793657,12.5503708 5.24542929,11.8341138 L5.24542929,14.5968057 L6.70351666,15.0572543 L8.59903024,15.3642201 L8.59903024,16.8990489 L10.2029263,16.8990489 L10.2029263,15.3642201 L11.2235875,15.0572543 C12.6816822,14.5456422 13.459321,13.5991739 13.5565273,12.217821 C13.6537336,10.8364682 13.0705045,9.83883944 11.8068224,9.22490485 L10.3487351,8.61097332 C8.98784673,8.09936116 8.30741276,7.56217645 8.30741276,6.99940308 C8.30741276,6.4366297 8.98784673,6.30872858 10.3487351,6.61569587 L12.3900574,7.2296274 L13.2649098,4.92738419 L10.2029263,4.15996978 L10.2029263,3.08558962 L8.59903024,3.08558962 L8.59903024,4.15996978 Z" id="Oval"></path>
        </g>
    </g>
</svg>