<?xml version="1.0" encoding="UTF-8"?>
<svg width="23px" height="23px" viewBox="0 0 23 23" version="1.1" xmlns="http://www.w3.org/2000/svg" xmlns:xlink="http://www.w3.org/1999/xlink">
    <!-- Generator: Sketch 47 (45396) - http://www.bohemiancoding.com/sketch -->
    <title>Page 1</title>
    <desc>Created with Sketch.</desc>
    <defs></defs>
    <g id="Flujo-sitio" stroke="none" stroke-width="1" fill="none" fill-rule="evenodd">
        <path d="M12.1876689,21 C10.2475231,21 8.45754524,20.3620732 7,19.2954229 L19.2954229,7 C20.3620732,8.45754524 21,10.2475231 21,12.1876689 C21,17.0469172 17.0469172,21 12.1876689,21 M10.8123311,2 C12.7524769,2 14.5424548,2.6379268 16,3.70457709 L3.70457709,16 C2.6379268,14.5424548 2,12.7524769 2,10.8123311 C2,5.95308278 5.95308278,2 10.8123311,2 M11.5,0 C5.14903226,0 0,5.14843871 0,11.5 C0,17.8509677 5.14903226,23 11.5,23 C17.8509677,23 23,17.8509677 23,11.5 C23,5.14843871 17.8509677,0 11.5,0" id="Page-1" fill="#69B4C5"></path>
    </g>
</svg>