<?xml version="1.0" encoding="UTF-8"?>
<svg width="22px" height="22px" viewBox="0 0 22 22" version="1.1" xmlns="http://www.w3.org/2000/svg" xmlns:xlink="http://www.w3.org/1999/xlink">
    <!-- Generator: Sketch 47.1 (45422) - http://www.bohemiancoding.com/sketch -->
    <title>Shape</title>
    <desc>Created with Sketch.</desc>
    <defs></defs>
    <g id="Flujo-sitio" stroke="none" stroke-width="1" fill="none" fill-rule="evenodd">
        <path d="M11,0 C4.92499857,0 0,4.92499857 0,11 C0,17.0750014 4.92499857,22 11,22 C17.0750014,22 22,17.0750014 22,11 C22,4.92499857 17.0750014,0 11,0 Z M16.4821194,7.01671134 C14.4004449,10.0015114 12.3172018,12.9853704 10.2330177,15.9682884 C10.084013,16.1812867 9.90959904,16.2882564 9.73518508,16.2882564 C9.57520105,16.2882564 9.41553071,16.1982262 9.27656419,16.0181657 C8.14067758,14.5478811 7.00416358,13.0779102 5.87298238,11.604175 C5.69794103,11.3761193 5.54517196,11.1301831 5.39020704,10.8873838 C5.26002395,10.6831689 5.28888382,10.4839731 5.44133919,10.3007757 C5.49560828,10.2355273 5.55050476,10.1705926 5.61010666,10.1103633 C5.82373239,9.89391433 5.9956368,9.78318029 6.18134375,9.78318029 C6.3294074,9.78318029 6.48625449,9.85376148 6.68011749,9.99743341 C7.53838476,10.6342326 8.37563452,11.2992642 9.22166771,11.9526892 C9.37475047,12.0709519 9.52720584,12.1901557 9.69534592,12.3212799 C10.0325672,11.9329265 10.3550448,11.563081 10.6756402,11.1919808 C12.1123596,9.52846062 13.5487652,7.8649404 14.9845434,6.20079279 C15.2687504,5.87141391 15.4572806,5.71174357 15.6665146,5.71174357 C15.8515941,5.71174357 16.0529858,5.83659385 16.3509953,6.07939314 C16.7675811,6.41881024 16.7933041,6.57032453 16.4821194,7.01671134 Z" id="Shape" fill="#69B4C5" fill-rule="nonzero"></path>
    </g>
</svg>