<?xml version="1.0" encoding="UTF-8"?>
<svg width="34px" height="26px" viewBox="0 0 34 26" version="1.1" xmlns="http://www.w3.org/2000/svg" xmlns:xlink="http://www.w3.org/1999/xlink">
    <!-- Generator: Sketch 47 (45396) - http://www.bohemiancoding.com/sketch -->
    <title>Page 1</title>
    <desc>Created with Sketch.</desc>
    <defs>
        <polygon id="path-1" points="15.3424397 15.3089732 0.0822269504 15.3089732 0.0822269504 0.0880055504 15.3424397 0.0880055504 15.3424397 15.3089732"></polygon>
        <polygon id="path-3" points="0.310557447 0.71506013 3.23021702 0.71506013 3.23021702 5.40220352 0.310557447 5.40220352 0.310557447 0.71506013"></polygon>
    </defs>
    <g id="Flujo-sitio" stroke="none" stroke-width="1" fill="none" fill-rule="evenodd">
        <g id="Page-1">
            <path d="M11.0311915,11.3743626 C11.5556596,10.8808196 12.1502979,10.4450009 12.8114894,10.0842239 C13.4668936,9.72561147 14.1497872,9.46152266 14.8428085,9.28618501 L11.8942128,8.42753562 L11.0311915,11.3743626 Z" id="Fill-1" fill="#69B4C5"></path>
            <g id="Group-5" transform="translate(9.247518, 9.952204)">
                <mask id="mask-2" fill="white">
                    <use xlink:href="#path-1"></use>
                </mask>
                <g id="Clip-4"></g>
                <path d="M10.1635887,0.492075856 C9.39460993,0.23159482 8.57065248,0.0880055504 7.71197163,0.0880055504 C6.86631206,0.0880055504 6.05392908,0.227265495 5.29435461,0.48053099 C2.2661844,1.48926364 0.0822269504,4.33868085 0.0822269504,7.69823682 C0.0822269504,11.9020111 3.49814184,15.3091896 7.71197163,15.3091896 C11.9265248,15.3091896 15.3424397,11.9020111 15.3424397,7.69823682 C15.3424397,4.35166883 13.1743972,1.51018871 10.1635887,0.492075856" id="Fill-3" fill="#69B4C5" mask="url(#mask-2)"></path>
            </g>
            <path d="M22.5512596,1.66722294 C21.6397702,1.34973913 20.6935574,1.10729695 19.7176851,0.947833488 L19.1208766,5.5679445 C19.6952596,5.66968363 20.2551745,5.80966512 20.7984511,5.98788899 L22.5512596,1.66722294 Z" id="Fill-6" fill="#37435E"></path>
            <path d="M11.9057872,6.45949676 L10.1558723,2.14243848 C9.25378723,2.53640703 8.39221277,3.00613876 7.58055319,3.54513969 L10.3743404,7.28495467 C10.8633617,6.97540796 11.3748085,6.69905273 11.9057872,6.45949676" id="Fill-8" fill="#69B4C5"></path>
            <path d="M14.8022255,5.56743941 L14.2061404,0.9473284 C13.2302681,1.10534875 12.2840553,1.34851249 11.3718426,1.6659963 L13.1239277,5.9873839 C13.6679277,5.80916004 14.2278426,5.66917854 14.8022255,5.56743941" id="Fill-10" fill="#37435E"></path>
            <path d="M23.5480383,7.28675856 L26.3425489,3.54694357 C25.5308894,3.00794265 24.6693149,2.53893247 23.7672298,2.14352081 L22.0165915,6.46057909 C22.5475702,6.70085661 23.059017,6.97649029 23.5480383,7.28675856" id="Fill-12" fill="#37435E"></path>
            <g id="Group-16" transform="translate(15.191489, 0.006783)">
                <mask id="mask-4" fill="white">
                    <use xlink:href="#path-3"></use>
                </mask>
                <g id="Clip-15"></g>
                <path d="M1.76821702,5.36829047 C2.05902553,5.36829047 2.34694043,5.38272155 2.63268511,5.40220352 L3.23021702,0.782092507 C2.74770638,0.740242368 2.26157872,0.714987974 1.76821702,0.714987974 C1.27630213,0.714987974 0.790897872,0.740242368 0.310557447,0.781370953 L0.907365957,5.40148196 C1.19166383,5.382 1.47885532,5.36829047 1.76821702,5.36829047" id="Fill-14" fill="#37435E" mask="url(#mask-4)"></path>
            </g>
            <path d="M4.36162128,6.31504163 L8.01698298,9.2279556 C8.41847234,8.80223867 8.85106809,8.40610546 9.31042979,8.04172063 L6.52170638,4.30984274 C5.74549362,4.9159482 5.02064255,5.58482886 4.36162128,6.31504163" id="Fill-17" fill="#69B4C5"></path>
            <path d="M32.5609319,10.9959796 L28.2957404,12.8842868 C28.5279532,13.4348326 28.7211021,14.0055819 28.8715702,14.5936485 L33.486166,13.8439537 C33.2597404,12.8597539 32.9508468,11.9065809 32.5609319,10.9959796" id="Fill-19" fill="#37435E"></path>
            <path d="M33.7322681,15.1244958 L29.1256298,15.8727475 C29.2088213,16.4492692 29.2543957,17.0380574 29.2543957,17.6376688 L33.9196298,17.6376688 C33.9196298,16.7840703 33.8545234,15.9449029 33.7322681,15.1244958" id="Fill-21" fill="#37435E"></path>
            <path d="M30.3957106,7.32059944 L26.7512,10.2234117 C27.1100085,10.6945865 27.434817,11.1910157 27.7241787,11.7119778 L31.9987745,9.81934135 C31.5365191,8.93760222 30.9997532,8.10204255 30.3957106,7.32059944" id="Fill-23" fill="#37435E"></path>
            <path d="M27.4003106,4.31171878 L24.6115872,8.04287512 C25.0702255,8.4079815 25.5028213,8.80483626 25.905034,9.22983164 L29.5603957,6.31763922 C28.9013745,5.58814801 28.1765234,4.91854579 27.4003106,4.31171878" id="Fill-25" fill="#37435E"></path>
            <path d="M0,17.6379574 L4.66523404,17.6379574 C4.66523404,17.0376244 4.71080851,16.4481147 4.7947234,15.8708714 L0.188085106,15.1211767 C0.065106383,15.9423053 0,16.7821943 0,17.6379574" id="Fill-27" fill="#69B4C5"></path>
            <path d="M1.92295319,9.81645513 L6.19682553,11.7098131 C6.48618723,11.1888511 6.81171915,10.6924218 7.17052766,10.2219685 L3.52601702,7.31771323 C2.92197447,8.09915634 2.38520851,8.934716 1.92295319,9.81645513" id="Fill-29" fill="#69B4C5"></path>
            <path d="M0.434476596,13.8413562 L5.04834894,14.5917724 C5.19881702,14.0037058 5.39268936,13.4329565 5.62490213,12.8816892 L1.35971064,10.9933821 C0.969795745,11.9032618 0.660178723,12.8564348 0.434476596,13.8413562" id="Fill-31" fill="#69B4C5"></path>
        </g>
    </g>
</svg>