<?xml version="1.0" encoding="UTF-8"?>
<svg width="23px" height="20px" viewBox="0 0 23 20" version="1.1" xmlns="http://www.w3.org/2000/svg" xmlns:xlink="http://www.w3.org/1999/xlink">
    <!-- Generator: Sketch 47 (45396) - http://www.bohemiancoding.com/sketch -->
    <title>Page 1</title>
    <desc>Created with Sketch.</desc>
    <defs>
        <polygon id="path-1" points="1.30851986e-20 0.0876206897 1.30851986e-20 11.977 22.0315586 11.977 22.0315586 0.0876206897 0 0.0876206897"></polygon>
    </defs>
    <g id="Flujo-sitio" stroke="none" stroke-width="1" fill="none" fill-rule="evenodd">
        <g id="Page-1">
            <polygon id="Fill-1" fill="#5BABBF" points="20.6905034 12.7334828 19.449331 9.91513793 19.449331 19.7054828 22.6176759 19.7054828 22.6461586 19.7054828 22.6176759 8.47024138 22.6104345 5.48003448"></polygon>
            <polygon id="Fill-2" fill="#5BABBF" points="9.85667586 8.21182069 9.85667586 19.7058207 13.0539862 19.7058207 13.0539862 10.5324414 11.9552276 11.2343724 10.0647448 8.08823448"></polygon>
            <polygon id="Fill-3" fill="#5BABBF" points="4.81450345 11.2080138 4.81450345 19.705531 8.0736069 19.705531 8.0736069 9.27166897"></polygon>
            <polygon id="Fill-4" fill="#5BABBF" points="16.5772552 8.40038621 15.4060828 9.10424828 14.5911862 9.59328276 14.5911862 19.7056276 17.8502897 19.7056276 17.8502897 7.63569655"></polygon>
            <path d="M1.54236552,13.1520828 L0.0284344828,14.0620828 L0.00236551724,14.077531 C0.00767586207,16.0534621 0.0182965517,18.0771862 0.0182965517,18.0984276 L0.0182965517,19.705531 L0.0284344828,19.705531 L3.2156069,19.705531 L3.2156069,12.1576 L1.54236552,13.1520828 Z" id="Fill-5" fill="#5BABBF"></path>
            <g id="Group-9" transform="translate(0.000000, 0.395283)">
                <mask id="mask-2" fill="white">
                    <use xlink:href="#path-1"></use>
                </mask>
                <g id="Clip-8"></g>
                <polygon id="Fill-7" fill="#69B4C5" mask="url(#mask-2)" points="19.656869 6.909 20.4191448 8.16127586 21.0872828 5.48196552 22.0315586 1.69375862 15.5876966 0.0876206897 17.4019034 3.15168966 14.6535586 4.8032069 13.4819034 5.50706897 12.7693517 4.32141379 12.3001103 3.53982759 11.5914207 2.36044828 3.21555862 7.3932069 2.19983448 8.00341379 0.0283862069 9.30831034 -9.65517241e-05 9.3252069 0.00859310345 10.1401034 0.0283862069 11.977 3.21555862 10.0614138 4.81445517 9.1012069 8.07355862 7.14265517 9.85638621 6.07141379 10.808869 5.49934483 11.5214207 6.685 12.6993517 8.64548276 13.0536966 8.43258621 13.3829379 8.23465517 14.5912828 7.50858621 14.6598345 7.46755172 15.8314897 6.76368966 17.8503862 5.551 18.5769379 5.11410345 19.5236276 6.69031034"></polygon>
            </g>
        </g>
    </g>
</svg>