<?xml version="1.0" encoding="UTF-8"?>
<svg width="18px" height="18px" viewBox="0 0 18 18" version="1.1" xmlns="http://www.w3.org/2000/svg" xmlns:xlink="http://www.w3.org/1999/xlink">
    <!-- Generator: Sketch 46.2 (44496) - http://www.bohemiancoding.com/sketch -->
    <title>LinkedIn__x28_alt_x29_ Copy 3</title>
    <desc>Created with Sketch.</desc>
    <defs></defs>
    <g id="Page-1" stroke="none" stroke-width="1" fill="none" fill-rule="evenodd">
        <g id="DPTO-ESTUDIOS-Copy" transform="translate(-512.000000, -1429.000000)" fill-rule="nonzero" fill="#9B9B9B">
            <g id="Group-6" transform="translate(171.000000, 1058.000000)">
                <path d="M357.669456,371 L342.330544,371 C341.594142,371 341,371.57754 341,372.289003 L341,387.710997 C341,388.42246 341.594142,389 342.330544,389 L357.669456,389 C358.401674,389 359,388.42246 359,387.710997 L359,372.289003 C358.995816,371.57754 358.401674,371 357.669456,371 Z M346.456067,386.066264 L343.736402,386.066264 L343.736402,377.938851 L346.456067,377.938851 L346.456067,386.066264 Z M345.096234,376.829807 L345.079498,376.829807 C344.167364,376.829807 343.577406,376.206231 343.577406,375.423622 C343.577406,374.628458 344.1841,374.021623 345.117155,374.021623 C346.046025,374.021623 346.619247,374.628458 346.635983,375.423622 C346.635983,376.206231 346.046025,376.829807 345.096234,376.829807 Z M356.259414,386.066264 L353.539749,386.066264 L353.539749,381.717973 C353.539749,380.625668 353.146444,379.880725 352.16318,379.880725 C351.410042,379.880725 350.966527,380.382934 350.769874,380.868403 C350.698745,381.039991 350.677824,381.282725 350.677824,381.525459 L350.677824,386.066264 L347.958159,386.066264 C347.958159,386.066264 347.995816,378.700535 347.958159,377.938851 L350.677824,377.938851 L350.677824,379.089747 C351.037657,378.537317 351.682008,377.746338 353.125523,377.746338 C354.916318,377.746338 356.25523,378.905603 356.25523,381.404092 L356.259414,386.066264 L356.259414,386.066264 Z M350.661088,379.155427 C350.671335,379.134928 350.691828,379.11443 350.702075,379.093932 L350.702075,379.155427 L350.661088,379.155427 Z" id="LinkedIn__x28_alt_x29_-Copy-3"></path>
            </g>
        </g>
    </g>
</svg>